<svg width="28" height="28" viewBox="0 0 28 28" fill="none" xmlns="http://www.w3.org/2000/svg">
<path fill-rule="evenodd" clip-rule="evenodd" d="M13.9999 2.33333C7.55917 2.33333 2.33325 7.55924 2.33325 14C2.33325 20.4407 7.55917 25.6667 13.9999 25.6667C20.4281 25.6667 25.6666 20.4409 25.6666 14C25.6666 7.55908 20.4281 2.33333 13.9999 2.33333ZM15.4569 9.94372C14.1074 7.49228 12.6599 5.43738 12.0967 4.65879C12.7079 4.5384 13.3447 4.478 13.9999 4.478C16.3469 4.478 18.5006 5.33037 20.1641 6.73849C19.7413 7.2687 18.3153 8.82908 15.4569 9.94372ZM13.1203 10.6658C9.22362 11.6644 5.76893 11.7635 4.72132 11.773C5.38784 9.00363 7.27395 6.69828 9.77243 5.45621C10.2289 6.08582 11.6991 8.18233 13.1203 10.6658ZM16.42 11.7987C19.4102 10.5319 21.0157 8.8395 21.5537 8.20017C22.7269 9.71904 23.4463 11.6014 23.5273 13.6355C22.6319 13.4716 19.8992 13.0349 17.1069 13.3555C17.0908 13.3163 17.0752 13.2769 17.059 13.2361C17.0308 13.1652 17.001 13.0902 16.9645 13.0049C16.7955 12.6035 16.6089 12.194 16.42 11.7987ZM4.45311 14.0124V13.9473C5.53788 13.9543 9.76352 13.881 14.1441 12.5984C14.3531 13.0071 14.5493 13.4229 14.7381 13.841C14.6931 13.8539 14.6479 13.8669 14.6041 13.8801L14.5996 13.8815C10.0417 15.3522 7.38861 19.0835 6.69957 20.1541C5.30373 18.4985 4.45311 16.3493 4.45311 14.0124ZM19.6086 21.7079C19.4243 20.7175 18.908 18.271 17.858 15.3272C20.4272 14.9826 22.6765 15.5244 23.3681 15.7233C22.9347 18.1712 21.549 20.2962 19.6086 21.7079ZM8.29944 21.6513C8.74037 20.8436 10.7601 17.6212 15.6039 15.8805C16.8328 19.1131 17.3809 21.8406 17.5637 22.8539C16.4592 23.3052 15.2576 23.5468 13.9999 23.5468C11.8629 23.5468 9.88582 22.8414 8.29944 21.6513ZM15.7734 15.8189L15.7769 15.8174L15.7747 15.8184L15.7734 15.8189Z" fill="#2E3A59"/>
</svg>
