<svg width="32" height="32" viewBox="0 0 32 32" fill="none" xmlns="http://www.w3.org/2000/svg">
<path d="M9.89088 31C8.87273 31 7.90471 30.599 7.16538 29.8703C6.41352 29.1304 6 28.1498 6 27.1091V5.18425C6 2.8773 7.87714 1.00015 10.1841 1.00015H16.9841C22.4588 1.00015 26.913 5.4543 26.913 10.9297C26.913 13.5894 25.8823 16.085 24.0108 17.9565C22.1393 19.828 19.6438 20.8587 16.9841 20.8587H13.7818V27.1091C13.7818 28.153 13.3783 29.131 12.6452 29.8634C11.9128 30.5965 10.9341 31 9.89088 31ZM10.1841 3.50635C9.25869 3.50635 8.5062 4.25884 8.5062 5.18425V27.1091C8.5062 27.8597 9.14027 28.4938 9.89088 28.4938C10.6678 28.4938 11.2756 27.8854 11.2756 27.1091V18.3525H16.9841C21.0773 18.3525 24.4068 15.0223 24.4068 10.9297C24.4068 6.83647 21.0773 3.50635 16.9841 3.50635H10.1841Z" fill="#707070"/>
<path d="M26.9129 10.9296H24.4067C24.4067 6.83631 21.0772 3.5062 16.984 3.5062V1C22.4588 1 26.9129 5.45414 26.9129 10.9296Z" fill="#303030"/>
<path d="M9.89088 30.9998C8.87273 30.9998 7.90471 30.5988 7.16538 29.8701C6.41352 29.1302 6 28.1496 6 27.1089V19.6054H8.5062V27.1089C8.5062 27.8595 9.14027 28.4936 9.89088 28.4936V30.9998Z" fill="#303030"/>
<path d="M13.9069 16.2359C15.4018 16.2359 16.6136 15.0241 16.6136 13.5292C16.6136 12.0344 15.4018 10.8225 13.9069 10.8225C12.4121 10.8225 11.2003 12.0344 11.2003 13.5292C11.2003 15.0241 12.4121 16.2359 13.9069 16.2359Z" fill="#303030"/>
<path d="M19.5706 11.7251C20.7458 11.7251 21.6984 10.7725 21.6984 9.59737C21.6984 8.42224 20.7458 7.4696 19.5706 7.4696C18.3955 7.4696 17.4429 8.42224 17.4429 9.59737C17.4429 10.7725 18.3955 11.7251 19.5706 11.7251Z" fill="#707070"/>
<path d="M13.9069 8.8912C14.7775 8.8912 15.4833 8.18543 15.4833 7.3148C15.4833 6.44418 14.7775 5.7384 13.9069 5.7384C13.0363 5.7384 12.3305 6.44418 12.3305 7.3148C12.3305 8.18543 13.0363 8.8912 13.9069 8.8912Z" fill="#707070"/>
</svg>
