<svg width="28" height="28" viewBox="0 0 28 28" fill="none" xmlns="http://www.w3.org/2000/svg">
<path d="M24.5 24.5H19.8333V16.625C19.8333 15.39 18.4475 14.3568 17.2124 14.3568C15.9774 14.3568 15.1667 15.39 15.1667 16.625V24.5H10.5V10.5H15.1667V12.8333C15.9394 11.5833 17.9158 10.7768 19.2792 10.7768C22.1626 10.7768 24.5 13.1584 24.5 16.0417V24.5ZM8.16667 24.5H3.5V10.5H8.16667V24.5ZM5.83334 3.5C7.12201 3.5 8.16668 4.54467 8.16668 5.83333C8.16668 7.122 7.12201 8.16667 5.83334 8.16667C4.54468 8.16667 3.50001 7.122 3.50001 5.83333C3.50001 4.54467 4.54468 3.5 5.83334 3.5Z" fill="#2E3A59"/>
</svg>
