<svg width="16" height="16" viewBox="0 0 16 16" fill="none" xmlns="http://www.w3.org/2000/svg">
<path d="M8.85411 8.00008C8.85411 10.0911 7.1705 11.7862 5.09378 11.7862C3.01705 11.7862 1.33331 10.0907 1.33331 8.00008C1.33331 5.90943 3.01692 4.21381 5.09378 4.21381C7.17063 4.21381 8.85411 5.90904 8.85411 8.00008ZM12.9793 8.00008C12.9793 9.96834 12.1375 11.5646 11.0991 11.5646C10.0607 11.5646 9.21887 9.96834 9.21887 8.00008C9.21887 6.03182 10.0605 4.4356 11.099 4.4356C12.1374 4.4356 12.9792 6.03131 12.9792 8.00008H12.9793ZM14.6666 8.00008C14.6666 9.76315 14.3706 11.1933 14.0054 11.1933C13.6401 11.1933 13.3442 9.76354 13.3442 8.00008C13.3442 6.23662 13.6402 4.80686 14.0054 4.80686C14.3705 4.80686 14.6666 6.23649 14.6666 8.00008Z" fill="black"/>
</svg>
