<svg width="136" height="16" viewBox="0 0 136 16" fill="none" xmlns="http://www.w3.org/2000/svg">
<path d="M0.0880001 12V0.799999H4.232C5.128 0.799999 5.86933 0.949333 6.456 1.248C7.04267 1.54667 7.48 1.95733 7.768 2.48C8.056 3.00267 8.2 3.58933 8.2 4.24C8.2 4.85867 8.06133 5.42933 7.784 5.952C7.50667 6.464 7.07467 6.88 6.488 7.2C5.90133 7.50933 5.14933 7.664 4.232 7.664H2.136V12H0.0880001ZM2.136 6H4.104C4.81867 6 5.33067 5.84533 5.64 5.536C5.96 5.216 6.12 4.784 6.12 4.24C6.12 3.68533 5.96 3.25333 5.64 2.944C5.33067 2.624 4.81867 2.464 4.104 2.464H2.136V6ZM9.75875 12V4.064H11.5828L11.7748 5.552C12.0628 5.04 12.4521 4.63467 12.9427 4.336C13.4441 4.02667 14.0308 3.872 14.7028 3.872V6.032H14.1268C13.6788 6.032 13.2788 6.10133 12.9268 6.24C12.5748 6.37867 12.2974 6.61867 12.0948 6.96C11.9028 7.30133 11.8068 7.776 11.8068 8.384V12H9.75875ZM18.8385 12.192C18.1558 12.192 17.5958 12.0853 17.1585 11.872C16.7212 11.648 16.3958 11.3547 16.1825 10.992C15.9692 10.6293 15.8625 10.2293 15.8625 9.792C15.8625 9.056 16.1505 8.45867 16.7265 8C17.3025 7.54133 18.1665 7.312 19.3185 7.312H21.3345V7.12C21.3345 6.576 21.1798 6.176 20.8705 5.92C20.5612 5.664 20.1772 5.536 19.7185 5.536C19.3025 5.536 18.9398 5.63733 18.6305 5.84C18.3212 6.032 18.1292 6.32 18.0545 6.704H16.0545C16.1078 6.128 16.2998 5.62667 16.6305 5.2C16.9718 4.77333 17.4092 4.448 17.9425 4.224C18.4758 3.98933 19.0732 3.872 19.7345 3.872C20.8652 3.872 21.7558 4.15467 22.4065 4.72C23.0572 5.28533 23.3825 6.08533 23.3825 7.12V12H21.6385L21.4465 10.72C21.2118 11.1467 20.8812 11.4987 20.4545 11.776C20.0385 12.0533 19.4998 12.192 18.8385 12.192ZM19.3025 10.592C19.8892 10.592 20.3425 10.4 20.6625 10.016C20.9932 9.632 21.2012 9.15733 21.2865 8.592H19.5425C18.9985 8.592 18.6092 8.69333 18.3745 8.896C18.1398 9.088 18.0225 9.328 18.0225 9.616C18.0225 9.92533 18.1398 10.1653 18.3745 10.336C18.6092 10.5067 18.9185 10.592 19.3025 10.592ZM30.0409 12.192C29.4435 12.192 28.9209 12.08 28.4729 11.856C28.0249 11.632 27.6622 11.3173 27.3849 10.912L27.1609 12H25.3369V0.48H27.3849V5.2C27.6409 4.848 27.9769 4.53867 28.3929 4.272C28.8195 4.00533 29.3689 3.872 30.0409 3.872C30.7875 3.872 31.4542 4.05333 32.0409 4.416C32.6275 4.77867 33.0915 5.27467 33.4329 5.904C33.7742 6.53333 33.9449 7.248 33.9449 8.048C33.9449 8.848 33.7742 9.56267 33.4329 10.192C33.0915 10.8107 32.6275 11.3013 32.0409 11.664C31.4542 12.016 30.7875 12.192 30.0409 12.192ZM29.6089 10.4C30.2595 10.4 30.7982 10.1813 31.2249 9.744C31.6515 9.30667 31.8649 8.74133 31.8649 8.048C31.8649 7.35467 31.6515 6.784 31.2249 6.336C30.7982 5.888 30.2595 5.664 29.6089 5.664C28.9475 5.664 28.4035 5.888 27.9769 6.336C27.5609 6.77333 27.3529 7.33867 27.3529 8.032C27.3529 8.72533 27.5609 9.296 27.9769 9.744C28.4035 10.1813 28.9475 10.4 29.6089 10.4ZM43.4224 4.064V12H41.6144L41.4544 10.656C41.209 11.1253 40.8517 11.4987 40.3824 11.776C39.9237 12.0533 39.3797 12.192 38.7504 12.192C37.769 12.192 37.0064 11.8827 36.4624 11.264C35.9184 10.6453 35.6464 9.73867 35.6464 8.544V4.064H37.6944V8.352C37.6944 9.03467 37.833 9.55733 38.1104 9.92C38.3877 10.2827 38.8197 10.464 39.4064 10.464C39.9824 10.464 40.4517 10.2613 40.8144 9.856C41.1877 9.45067 41.3744 8.88533 41.3744 8.16V4.064H43.4224ZM45.5088 12V4.064H47.3328L47.5248 5.552C47.8128 5.04 48.2021 4.63467 48.6927 4.336C49.1941 4.02667 49.7808 3.872 50.4528 3.872V6.032H49.8768C49.4288 6.032 49.0288 6.10133 48.6768 6.24C48.3248 6.37867 48.0474 6.61867 47.8448 6.96C47.6528 7.30133 47.5568 7.776 47.5568 8.384V12H45.5088ZM54.5885 12.192C53.9058 12.192 53.3458 12.0853 52.9085 11.872C52.4712 11.648 52.1458 11.3547 51.9325 10.992C51.7192 10.6293 51.6125 10.2293 51.6125 9.792C51.6125 9.056 51.9005 8.45867 52.4765 8C53.0525 7.54133 53.9165 7.312 55.0685 7.312H57.0845V7.12C57.0845 6.576 56.9298 6.176 56.6205 5.92C56.3112 5.664 55.9272 5.536 55.4685 5.536C55.0525 5.536 54.6898 5.63733 54.3805 5.84C54.0712 6.032 53.8792 6.32 53.8045 6.704H51.8045C51.8578 6.128 52.0498 5.62667 52.3805 5.2C52.7218 4.77333 53.1592 4.448 53.6925 4.224C54.2258 3.98933 54.8232 3.872 55.4845 3.872C56.6152 3.872 57.5058 4.15467 58.1565 4.72C58.8072 5.28533 59.1325 6.08533 59.1325 7.12V12H57.3885L57.1965 10.72C56.9618 11.1467 56.6312 11.4987 56.2045 11.776C55.7885 12.0533 55.2498 12.192 54.5885 12.192ZM55.0525 10.592C55.6392 10.592 56.0925 10.4 56.4125 10.016C56.7432 9.632 56.9512 9.15733 57.0365 8.592H55.2925C54.7485 8.592 54.3592 8.69333 54.1245 8.896C53.8898 9.088 53.7725 9.328 53.7725 9.616C53.7725 9.92533 53.8898 10.1653 54.1245 10.336C54.3592 10.5067 54.6685 10.592 55.0525 10.592ZM62.2229 2.832C61.8495 2.832 61.5402 2.72 61.2949 2.496C61.0602 2.272 60.9429 1.98933 60.9429 1.648C60.9429 1.30667 61.0602 1.02933 61.2949 0.815999C61.5402 0.591999 61.8495 0.48 62.2229 0.48C62.5962 0.48 62.9002 0.591999 63.1349 0.815999C63.3802 1.02933 63.5029 1.30667 63.5029 1.648C63.5029 1.98933 63.3802 2.272 63.1349 2.496C62.9002 2.72 62.5962 2.832 62.2229 2.832ZM59.5829 15.52V13.776H60.2069C60.5589 13.776 60.8095 13.7067 60.9589 13.568C61.1082 13.4293 61.1829 13.1947 61.1829 12.864V4.064H63.2309V12.864C63.2309 13.824 62.9855 14.5067 62.4949 14.912C62.0149 15.3173 61.3589 15.52 60.5269 15.52H59.5829ZM69.2286 12V0.799999H71.2766V5.328L75.4206 0.799999H77.9486L73.8206 5.248L78.0606 12H75.5486L72.3486 6.816L71.2766 7.984V12H69.2286ZM82.6148 12.192C81.8148 12.192 81.1054 12.0213 80.4868 11.68C79.8681 11.3387 79.3828 10.8587 79.0308 10.24C78.6788 9.62133 78.5028 8.90667 78.5028 8.096C78.5028 7.27467 78.6734 6.544 79.0148 5.904C79.3668 5.264 79.8468 4.768 80.4548 4.416C81.0734 4.05333 81.7988 3.872 82.6308 3.872C83.4094 3.872 84.0974 4.04267 84.6948 4.384C85.2921 4.72533 85.7561 5.19467 86.0868 5.792C86.4281 6.37867 86.5988 7.03467 86.5988 7.76C86.5988 7.87733 86.5934 8 86.5828 8.128C86.5828 8.256 86.5774 8.38933 86.5668 8.528H80.5348C80.5774 9.14667 80.7908 9.632 81.1748 9.984C81.5694 10.336 82.0441 10.512 82.5988 10.512C83.0148 10.512 83.3614 10.4213 83.6388 10.24C83.9268 10.048 84.1401 9.80267 84.2788 9.504H86.3588C86.2094 10.0053 85.9588 10.464 85.6068 10.88C85.2654 11.2853 84.8388 11.6053 84.3268 11.84C83.8254 12.0747 83.2548 12.192 82.6148 12.192ZM82.6308 5.536C82.1294 5.536 81.6868 5.68 81.3028 5.968C80.9188 6.24533 80.6734 6.672 80.5668 7.248H84.5188C84.4868 6.72533 84.2948 6.30933 83.9428 6C83.5908 5.69067 83.1534 5.536 82.6308 5.536ZM88.3213 12V4.064H90.1293L90.2893 5.408C90.5346 4.93867 90.8866 4.56533 91.3453 4.288C91.8146 4.01067 92.3639 3.872 92.9933 3.872C93.9746 3.872 94.7373 4.18133 95.2812 4.8C95.8252 5.41867 96.0972 6.32533 96.0972 7.52V12H94.0493V7.712C94.0493 7.02933 93.9106 6.50667 93.6333 6.144C93.3559 5.78133 92.9239 5.6 92.3373 5.6C91.7613 5.6 91.2866 5.80267 90.9133 6.208C90.5506 6.61333 90.3693 7.17867 90.3693 7.904V12H88.3213ZM98.0556 12V4.064H99.8636L100.024 5.408C100.269 4.93867 100.621 4.56533 101.08 4.288C101.549 4.01067 102.098 3.872 102.728 3.872C103.709 3.872 104.472 4.18133 105.016 4.8C105.56 5.41867 105.832 6.32533 105.832 7.52V12H103.784V7.712C103.784 7.02933 103.645 6.50667 103.368 6.144C103.09 5.78133 102.658 5.6 102.072 5.6C101.496 5.6 101.021 5.80267 100.648 6.208C100.285 6.61333 100.104 7.17867 100.104 7.904V12H98.0556ZM110.526 12.192C109.843 12.192 109.283 12.0853 108.846 11.872C108.409 11.648 108.083 11.3547 107.87 10.992C107.657 10.6293 107.55 10.2293 107.55 9.792C107.55 9.056 107.838 8.45867 108.414 8C108.99 7.54133 109.854 7.312 111.006 7.312H113.022V7.12C113.022 6.576 112.867 6.176 112.558 5.92C112.249 5.664 111.865 5.536 111.406 5.536C110.99 5.536 110.627 5.63733 110.318 5.84C110.009 6.032 109.817 6.32 109.742 6.704H107.742C107.795 6.128 107.987 5.62667 108.318 5.2C108.659 4.77333 109.097 4.448 109.63 4.224C110.163 3.98933 110.761 3.872 111.422 3.872C112.553 3.872 113.443 4.15467 114.094 4.72C114.745 5.28533 115.07 6.08533 115.07 7.12V12H113.326L113.134 10.72C112.899 11.1467 112.569 11.4987 112.142 11.776C111.726 12.0533 111.187 12.192 110.526 12.192ZM110.99 10.592C111.577 10.592 112.03 10.4 112.35 10.016C112.681 9.632 112.889 9.15733 112.974 8.592H111.23C110.686 8.592 110.297 8.69333 110.062 8.896C109.827 9.088 109.71 9.328 109.71 9.616C109.71 9.92533 109.827 10.1653 110.062 10.336C110.297 10.5067 110.606 10.592 110.99 10.592ZM120.672 12.192C119.926 12.192 119.259 12.0107 118.672 11.648C118.086 11.2853 117.622 10.7893 117.28 10.16C116.939 9.53067 116.768 8.816 116.768 8.016C116.768 7.216 116.939 6.50667 117.28 5.888C117.622 5.25867 118.086 4.768 118.672 4.416C119.259 4.05333 119.926 3.872 120.672 3.872C121.27 3.872 121.792 3.984 122.24 4.208C122.688 4.432 123.051 4.74667 123.328 5.152V0.48H125.376V12H123.552L123.328 10.864C123.072 11.216 122.731 11.5253 122.304 11.792C121.888 12.0587 121.344 12.192 120.672 12.192ZM121.104 10.4C121.766 10.4 122.304 10.1813 122.72 9.744C123.147 9.296 123.36 8.72533 123.36 8.032C123.36 7.33867 123.147 6.77333 122.72 6.336C122.304 5.888 121.766 5.664 121.104 5.664C120.454 5.664 119.915 5.88267 119.488 6.32C119.062 6.75733 118.848 7.32267 118.848 8.016C118.848 8.70933 119.062 9.28 119.488 9.728C119.915 10.176 120.454 10.4 121.104 10.4ZM128.454 15.52L130.294 11.472H129.814L126.726 4.064H128.95L131.174 9.648L133.494 4.064H135.67L130.63 15.52H128.454Z" fill="#2E3A59"/>
</svg>
