<svg width="28" height="28" viewBox="0 0 28 28" fill="none" xmlns="http://www.w3.org/2000/svg">
<path d="M26.2024 7.01445C25.3046 7.41269 24.3395 7.68183 23.3268 7.80285C24.3604 7.18318 25.1544 6.20198 25.5282 5.03275C24.5607 5.60658 23.4892 6.02325 22.3487 6.24774C21.4354 5.27464 20.1342 4.66667 18.6941 4.66667C15.929 4.66667 13.687 6.90839 13.687 9.67348C13.687 10.0659 13.7313 10.448 13.8167 10.8145C9.65548 10.6057 5.96608 8.61237 3.49665 5.5831C3.06563 6.32258 2.81872 7.18266 2.81872 8.10028C2.81872 9.83738 3.70262 11.3699 5.04614 12.2679C4.22546 12.2417 3.45333 12.0166 2.77833 11.6415C2.77785 11.6625 2.77785 11.6834 2.77785 11.7045C2.77785 14.1304 4.50376 16.154 6.79423 16.614C6.37411 16.7285 5.93177 16.7897 5.47514 16.7897C5.15251 16.7897 4.83885 16.7582 4.53308 16.6999C5.17025 18.689 7.01933 20.1367 9.21034 20.1769C7.49676 21.52 5.33786 22.3204 2.99199 22.3204C2.58785 22.3204 2.1893 22.2966 1.79761 22.2503C4.01341 23.671 6.64527 24.5 9.47279 24.5C18.6823 24.5 23.7186 16.8706 23.7186 10.254C23.7186 10.037 23.7137 9.82106 23.704 9.60628C24.6824 8.90034 25.5312 8.01853 26.2024 7.01445Z" fill="#2E3A59"/>
</svg>
