<svg width="120" height="120" viewBox="0 0 120 120" fill="none" xmlns="http://www.w3.org/2000/svg">
<path d="M37.0197 113C33.4563 113 30.0682 111.596 27.4806 109.046C24.8492 106.456 23.4019 103.024 23.4019 99.3819V22.6461C23.4019 14.5719 29.9718 8.00195 38.046 8.00195H61.8454C81.0069 8.00195 96.5962 23.5912 96.5962 42.7549C96.5962 52.0637 92.9889 60.798 86.4387 67.3482C79.8885 73.8983 71.1542 77.5056 61.8454 77.5056H50.6376V99.3819C50.6376 103.035 49.2253 106.458 46.6597 109.022C44.0962 111.588 40.6709 113 37.0197 113ZM38.046 16.7735C34.8071 16.7735 32.1734 19.4072 32.1734 22.6461V99.3819C32.1734 102.009 34.3926 104.228 37.0197 104.228C39.7389 104.228 41.866 102.099 41.866 99.3819V68.7341H61.8454C76.1716 68.7341 87.8246 57.0788 87.8246 42.7549C87.8246 28.4287 76.1716 16.7735 61.8454 16.7735H38.046Z" fill="#2EC1AC"/>
<path d="M51.0739 61.3245C56.3058 61.3245 60.5472 57.0832 60.5472 51.8512C60.5472 46.6193 56.3058 42.3779 51.0739 42.3779C45.8419 42.3779 41.6006 46.6193 41.6006 51.8512C41.6006 57.0832 45.8419 61.3245 51.0739 61.3245Z" fill="#2EC1AC"/>
<path d="M70.8968 45.5372C75.0097 45.5372 78.3438 42.203 78.3438 38.0901C78.3438 33.9772 75.0097 30.6431 70.8968 30.6431C66.7839 30.6431 63.4497 33.9772 63.4497 38.0901C63.4497 42.203 66.7839 45.5372 70.8968 45.5372Z" fill="#2EC1AC"/>
<path d="M51.0739 35.6186C54.1211 35.6186 56.5913 33.1484 56.5913 30.1013C56.5913 27.0542 54.1211 24.584 51.0739 24.584C48.0268 24.584 45.5566 27.0542 45.5566 30.1013C45.5566 33.1484 48.0268 35.6186 51.0739 35.6186Z" fill="#2EC1AC"/>
</svg>
